<svg width="423" height="372" viewBox="0 0 423 372" fill="none" xmlns="http://www.w3.org/2000/svg">
<rect x="53" y="27" width="100" height="73.5518" rx="12" fill="#95CD92"/>
<rect x="53" y="190.632" width="100" height="73.5518" rx="12" fill="#95CD92"/>
<rect x="53" y="108.816" width="100" height="73.5518" rx="12" fill="#95CD92"/>
<rect x="271" y="27" width="100" height="73.5518" rx="12" fill="#95CD92"/>
<rect x="271" y="190.632" width="100" height="73.5518" rx="12" fill="#C1EEBF"/>
<rect x="271" y="108.816" width="100" height="73.5518" rx="12" fill="#95CD92"/>
<rect x="162" y="27" width="100" height="73.5518" rx="12" fill="#95CD92"/>
<rect x="162" y="190.632" width="100" height="73.5518" rx="12" fill="#95CD92"/>
<rect x="53" y="272.448" width="100" height="73.5518" rx="12" fill="#95CD92"/>
<rect x="271" y="272.448" width="100" height="73.5518" rx="12" fill="#95CD92"/>
<rect x="162" y="272.448" width="100" height="73.5518" rx="12" fill="#95CD92"/>
<rect x="162" y="108.816" width="100" height="73.5518" rx="12" fill="#95CD92"/>
</svg>
