<svg xmlns="http://www.w3.org/2000/svg" width="1024" height="1024" viewBox="0 0 1024 1024">
  <!-- PLACEHOLDER FreeCell icon. See README.md in this directory. -->
  <defs>
    <linearGradient id="bg" x1="0" y1="0" x2="0" y2="1">
      <stop offset="0" stop-color="#166534"/>
      <stop offset="1" stop-color="#0f4a27"/>
    </linearGradient>
    <clipPath id="round"><rect width="1024" height="1024" rx="227" ry="227"/></clipPath>
  </defs>
  <g clip-path="url(#round)">
    <rect width="1024" height="1024" fill="url(#bg)"/>
    <rect x="179" y="179" width="666" height="133.2" fill="#052e16"/>
    <rect x="179" y="179" width="133.2" height="666" fill="#052e16"/>
    <rect x="179.0" y="179.0" width="133.2" height="133.2" fill="#ffffff"/>
    <rect x="445.4" y="312.2" width="133.2" height="133.2" fill="#86efac"/>
    <rect x="711.8" y="578.6" width="133.2" height="133.2" fill="#ffffff"/>
    <rect x="312.2" y="578.6" width="133.2" height="133.2" fill="#86efac"/>
    <line x1="179" y1="179.0" x2="845" y2="179.0" stroke="#d1fae5" stroke-width="10"/>
    <line x1="179.0" y1="179" x2="179.0" y2="845" stroke="#d1fae5" stroke-width="10"/>
    <line x1="179" y1="312.2" x2="845" y2="312.2" stroke="#d1fae5" stroke-width="10"/>
    <line x1="312.2" y1="179" x2="312.2" y2="845" stroke="#d1fae5" stroke-width="10"/>
    <line x1="179" y1="445.4" x2="845" y2="445.4" stroke="#d1fae5" stroke-width="10"/>
    <line x1="445.4" y1="179" x2="445.4" y2="845" stroke="#d1fae5" stroke-width="10"/>
    <line x1="179" y1="578.6" x2="845" y2="578.6" stroke="#d1fae5" stroke-width="10"/>
    <line x1="578.6" y1="179" x2="578.6" y2="845" stroke="#d1fae5" stroke-width="10"/>
    <line x1="179" y1="711.8" x2="845" y2="711.8" stroke="#d1fae5" stroke-width="10"/>
    <line x1="711.8" y1="179" x2="711.8" y2="845" stroke="#d1fae5" stroke-width="10"/>
    <line x1="179" y1="845.0" x2="845" y2="845.0" stroke="#d1fae5" stroke-width="10"/>
    <line x1="845.0" y1="179" x2="845.0" y2="845" stroke="#d1fae5" stroke-width="10"/>
  </g>
</svg>
